# xmcd
#
# Track frame offsets: 
#        150
#        13872
#        26895
#        36967
#        54980
#        69970
#        81827
#        95036
#        106184
#        118678
#        131148
#        143824
#        156451
#        167125
#        179966
#        193867
#        205546
#        215446
#        228941
#        242673
#        257300
#        267329
#        278755
#        289390
#        298042
#        312699
#        324264
#
# Disc length: 4577 seconds
#
# Revision: 2
# Processed by: cddbd v1.5.2PL0 Copyright (c) Steve Scherf et al.
# Submitted via: ExactAudioCopyFreeDBPlugin 1.0
#
DISCID=a011df1b
DTITLE=Waylon Jennings - The Journey - Six Strings Away - Vol. 4
DYEAR=1999
DGENRE=Country
TTITLE0=Lovin' Her Was Easier (Than Anything I'll Ever Do Again)
TTITLE1=Mobile Blues
TTITLE2=Mama I'll Sing One Song For You
TTITLE3=Casey's Last Ride
TTITLE4=Love In The Afternoon
TTITLE5=I've Got Eyes For You
TTITLE6=Under Your Spell Again (& Jessi Colter)
TTITLE7=Atlanta's Burning Down
TTITLE8=The Ghost Of General Lee
TTITLE9=Some Kind Of Fool
TTITLE10=I Think It's Time She Learned
TTITLE11=The Same Old Lover Man
TTITLE12=Low Down Freedom
TTITLE13=Unsatisfied
TTITLE14=It Should Be Easier Now
TTITLE15=Crazy Arms
TTITLE16=Do No Good Woman
TTITLE17=Sweet Dream Woman
TTITLE18=Good Hearted Woman
TTITLE19=Revelation
TTITLE20=Big, Big Love
TTITLE21=Ladies Love Outlaws
TTITLE22=Sure Didn't Take Him Long
TTITLE23=Nothin' Worth Takin' Or Leavin'
TTITLE24=Lay It Down
TTITLE25=Sandy Sends Her Best
TTITLE26=The Last Letter
EXTD=
EXTT0=
EXTT1=
EXTT2=
EXTT3=
EXTT4=
EXTT5=
EXTT6=
EXTT7=
EXTT8=
EXTT9=
EXTT10=
EXTT11=
EXTT12=
EXTT13=
EXTT14=
EXTT15=
EXTT16=
EXTT17=
EXTT18=
EXTT19=
EXTT20=
EXTT21=
EXTT22=
EXTT23=
EXTT24=
EXTT25=
EXTT26=
PLAYORDER=
